<svg width="24" height="28" viewBox="0 0 24 28" fill="none" xmlns="http://www.w3.org/2000/svg">
<path d="M15.75 11.2461C15.75 12.2407 15.3549 13.1945 14.6516 13.8977C13.9484 14.601 12.9945 14.9961 12 14.9961C11.0054 14.9961 10.0516 14.601 9.34833 13.8977C8.64506 13.1945 8.24998 12.2407 8.24998 11.2461C8.24998 10.2515 8.64506 9.2977 9.34833 8.59444C10.0516 7.89118 11.0054 7.49609 12 7.49609C12.9945 7.49609 13.9484 7.89118 14.6516 8.59444C15.3549 9.2977 15.75 10.2515 15.75 11.2461ZM4.50098 25.3641C4.53311 23.3964 5.33731 21.5203 6.74015 20.1401C8.14299 18.76 10.0321 17.9866 12 17.9866C13.9679 17.9866 15.857 18.76 17.2598 20.1401C18.6626 21.5203 19.4668 23.3964 19.499 25.3641C17.1464 26.4429 14.5881 26.9996 12 26.9961C9.32398 26.9961 6.78398 26.4121 4.50098 25.3641Z" stroke="#0C3521" stroke-width="1.5" stroke-linecap="round" stroke-linejoin="round"/>
<mask id="mask0_392_3159" style="mask-type:alpha" maskUnits="userSpaceOnUse" x="0" y="0" width="24" height="21">
<path d="M0 20.3401L6 18.7247L6.85714 16.0324H17.1429L21 18.7247L24 20.3401V16.0324V0H0V16.0324V20.3401Z" fill="#D9D9D9"/>
</mask>
<g mask="url(#mask0_392_3159)">
<circle cx="12" cy="11.2468" r="8.25" transform="rotate(-15 12 11.2468)" stroke="#0C3521" stroke-width="1.5" stroke-dasharray="10 5"/>
<path d="M22.9059 11.0402L19.5852 13.7739L18.0762 9.74606" stroke="#0C3521" stroke-width="1.5"/>
<path d="M0.999895 11.1268L4.32058 8.39314L5.82952 12.4209" stroke="#0C3521" stroke-width="1.5"/>
<path d="M12.2941 0.340227L15.0278 3.66091L11 5.16986" stroke="#0C3521" stroke-width="1.5"/>
</g>
</svg>
