<svg width="26" height="31" viewBox="0 0 26 31" fill="none" xmlns="http://www.w3.org/2000/svg">
<path d="M16.75 14.25C16.75 15.2446 16.3549 16.1984 15.6516 16.9017C14.9484 17.6049 13.9945 18 13 18C12.0054 18 11.0516 17.6049 10.3483 16.9017C9.64506 16.1984 9.24998 15.2446 9.24998 14.25C9.24998 13.2554 9.64506 12.3016 10.3483 11.5983C11.0516 10.8951 12.0054 10.5 13 10.5C13.9945 10.5 14.9484 10.8951 15.6516 11.5983C16.3549 12.3016 16.75 13.2554 16.75 14.25ZM5.50098 28.368C5.53311 26.4004 6.33731 24.5242 7.74015 23.144C9.14299 21.7639 11.0321 20.9905 13 20.9905C14.9679 20.9905 16.857 21.7639 18.2598 23.144C19.6626 24.5242 20.4668 26.4004 20.499 28.368C18.1464 29.4468 15.5881 30.0035 13 30C10.324 30 7.78398 29.416 5.50098 28.368Z" stroke="#0C3521" stroke-width="1.5" stroke-linecap="round" stroke-linejoin="round"/>
<path d="M22.394 14.067L22 15.25L21.606 14.067C21.4955 13.7356 21.3094 13.4345 21.0625 13.1875C20.8155 12.9406 20.5144 12.7545 20.183 12.644L19 12.25L20.183 11.856C20.5144 11.7455 20.8155 11.5594 21.0625 11.3125C21.3094 11.0655 21.4955 10.7644 21.606 10.433L22 9.25L22.394 10.433C22.5045 10.7644 22.6906 11.0655 22.9375 11.3125C23.1845 11.5594 23.4856 11.7455 23.817 11.856L25 12.25L23.817 12.644C23.4856 12.7545 23.1845 12.9406 22.9375 13.1875C22.6906 13.4345 22.5045 13.7356 22.394 14.067Z" stroke="#0C3521" stroke-width="1.5" stroke-linecap="round" stroke-linejoin="round"/>
<path d="M13.394 5.817L13 7L12.606 5.817C12.4955 5.48563 12.3094 5.18453 12.0625 4.93754C11.8155 4.69055 11.5144 4.50446 11.183 4.394L10 4L11.183 3.606C11.5144 3.49554 11.8155 3.30945 12.0625 3.06246C12.3094 2.81547 12.4955 2.51437 12.606 2.183L13 1L13.394 2.183C13.5045 2.51437 13.6906 2.81547 13.9375 3.06246C14.1845 3.30945 14.4856 3.49554 14.817 3.606L16 4L14.817 4.394C14.4856 4.50446 14.1845 4.69055 13.9375 4.93754C13.6906 5.18453 13.5045 5.48563 13.394 5.817Z" stroke="#0C3521" stroke-width="1.5" stroke-linecap="round" stroke-linejoin="round"/>
<path d="M4.394 12.067L4 13.25L3.606 12.067C3.49554 11.7356 3.30945 11.4345 3.06246 11.1875C2.81547 10.9406 2.51437 10.7545 2.183 10.644L1 10.25L2.183 9.856C2.51437 9.74554 2.81547 9.55945 3.06246 9.31246C3.30945 9.06547 3.49554 8.76437 3.606 8.433L4 7.25L4.394 8.433C4.50446 8.76437 4.69055 9.06547 4.93754 9.31246C5.18453 9.55945 5.48563 9.74554 5.817 9.856L7 10.25L5.817 10.644C5.48563 10.7545 5.18453 10.9406 4.93754 11.1875C4.69055 11.4345 4.50446 11.7356 4.394 12.067Z" stroke="#0C3521" stroke-width="1.5" stroke-linecap="round" stroke-linejoin="round"/>
</svg>
