<svg width="24" height="29" viewBox="0 0 24 29" fill="none" xmlns="http://www.w3.org/2000/svg">
<path d="M15.75 11C15.75 11.9946 15.3549 12.9484 14.6516 13.6517C13.9484 14.3549 12.9945 14.75 12 14.75C11.0054 14.75 10.0516 14.3549 9.34833 13.6517C8.64506 12.9484 8.24998 11.9946 8.24998 11C8.24998 10.0054 8.64506 9.05161 9.34833 8.34835C10.0516 7.64509 11.0054 7.25 12 7.25C12.9945 7.25 13.9484 7.64509 14.6516 8.34835C15.3549 9.05161 15.75 10.0054 15.75 11ZM4.50098 25.118C4.53311 23.1504 5.33731 21.2742 6.74015 19.894C8.14299 18.5139 10.0321 17.7405 12 17.7405C13.9679 17.7405 15.857 18.5139 17.2598 19.894C18.6626 21.2742 19.4668 23.1504 19.499 25.118C17.1464 26.1968 14.5881 26.7535 12 26.75C9.32398 26.75 6.78398 26.166 4.50098 25.118Z" stroke="#0C3521" stroke-width="1.5" stroke-linecap="round" stroke-linejoin="round"/>
<mask id="mask0_392_3135" style="mask-type:alpha" maskUnits="userSpaceOnUse" x="1" y="0" width="22" height="20">
<path d="M1.5 19.5L6.75 18L7.5 15.5H16.5L17.25 18L22.5 19.5V15.5V0H1.5V15.5V19.5Z" fill="#D9D9D9"/>
</mask>
<g mask="url(#mask0_392_3135)">
<circle cx="12" cy="11" r="6.75" stroke="#0C3521" stroke-width="1.5" stroke-dasharray="10 2"/>
<circle cx="12" cy="11" r="9.75" stroke="#0C3521" stroke-width="1.5" stroke-dasharray="5 2"/>
</g>
</svg>
